<svg width="32" height="32" viewBox="0 0 32 32" fill="none" xmlns="http://www.w3.org/2000/svg">
<path d="M14 1.5C14 0.66875 14.6687 0 15.5 0C24.6125 0 32 7.3875 32 16.5C32 17.3313 31.3313 18 30.5 18C29.6687 18 29 17.3313 29 16.5C29 9.04375 22.9563 3 15.5 3C14.6687 3 14 2.33125 14 1.5ZM5 6C6.65625 6 8 7.34375 8 9V23C8 24.6562 9.34375 26 11 26C12.6562 26 14 24.6562 14 23C14 21.3438 12.6562 20 11 20C10.45 20 10 19.55 10 19V15C10 14.45 10.45 14 11 14C15.9688 14 20 18.0312 20 23C20 27.9688 15.9688 32 11 32C6.03125 32 2 27.9688 2 23V9C2 7.34375 3.34375 6 5 6ZM15.5 6C21.3 6 26 10.7 26 16.5C26 17.3313 25.3313 18 24.5 18C23.6687 18 23 17.3313 23 16.5C23 12.3562 19.6438 9 15.5 9C14.6687 9 14 8.33125 14 7.5C14 6.66875 14.6687 6 15.5 6Z" fill="#E7E4F5"/>
</svg>
