<svg width="32" height="32" viewBox="0 0 32 32" fill="none" xmlns="http://www.w3.org/2000/svg">
<path d="M5.36623 20.8842C5.48231 21.0003 5.62012 21.0924 5.7718 21.1553C5.92348 21.2181 6.08605 21.2505 6.25023 21.2505C6.41441 21.2505 6.57698 21.2181 6.72866 21.1553C6.88034 21.0924 7.01816 21.0003 7.13423 20.8842L16.0002 12.0182L24.8662 20.8842C25.1007 21.1187 25.4187 21.2504 25.7502 21.2504C26.0818 21.2504 26.3998 21.1187 26.6342 20.8842C26.8687 20.6498 27.0004 20.3318 27.0004 20.0002C27.0004 19.6687 26.8687 19.3507 26.6342 19.1162L16.8842 9.36623C16.7682 9.25012 16.6303 9.15802 16.4787 9.09518C16.327 9.03234 16.1644 9 16.0002 9C15.8361 9 15.6735 9.03234 15.5218 9.09518C15.3701 9.15802 15.2323 9.25012 15.1162 9.36623L5.36623 19.1162C5.25013 19.2323 5.15802 19.3701 5.09518 19.5218C5.03234 19.6735 5 19.8361 5 20.0002C5 20.1644 5.03234 20.327 5.09518 20.4787C5.15802 20.6303 5.25013 20.7682 5.36623 20.8842Z" fill="#E7E4F5"/>
</svg>
