<svg width="32" height="32" viewBox="0 0 32 32" fill="none" xmlns="http://www.w3.org/2000/svg">
<path d="M10.0024 0H13.4398V1.43733H11.4398V2.87467H13.4398V4.312H10.0024V0ZM14.1264 0H17.5651V1.25067H15.5651V1.5H17.5651V4.37467H14.1264V3.06267H16.1264V2.812H14.1264V0ZM18.2531 0H21.6891V1.25067H19.6891V1.5H21.6891V4.37467H18.2531V3.06267H20.2531V2.812H18.2531V0Z" fill="#E7E4F5"/>
<path fill-rule="evenodd" clip-rule="evenodd" d="M15.988 32.0002L6.72933 29.4296L4 6.28955H28L25.272 29.4269L15.988 32.0002ZM9.396 16.7642L9.65067 19.6016H19.4867L19.1573 23.2816L15.992 24.1376H15.9893L12.8293 23.2842L12.6267 21.0216H9.77733L10.1747 25.4776L15.988 27.0909L21.8107 25.4776L22.52 17.5256L22.5893 16.7642L23.1013 11.0189H8.88533L9.144 13.8576H19.992L19.7333 16.7642H9.396Z" fill="#E7E4F5"/>
</svg>
