<svg width="32" height="32" viewBox="0 0 32 32" fill="none" xmlns="http://www.w3.org/2000/svg">
<path d="M29.0798 13.6666C28.9998 13.6133 28.3332 13.0933 26.8932 13.0933C26.5198 13.0933 26.1465 13.1333 25.7732 13.1999C25.4932 11.3333 23.9332 10.3866 23.8665 10.3466L23.4798 10.1199L23.2398 10.4799C22.9198 10.9599 22.6665 11.5066 22.5598 12.0666C22.2932 13.1333 22.4532 14.1466 22.9998 15.0133C22.3465 15.3866 21.2798 15.4799 21.0532 15.4799H3.49317C3.03984 15.4799 2.6665 15.8533 2.6665 16.3199C2.6665 17.8533 2.9065 19.3866 3.43984 20.8266C4.03984 22.4133 4.9465 23.5866 6.1065 24.3066C7.41317 25.1066 9.55984 25.5599 11.9998 25.5599C13.0532 25.5599 14.1465 25.4666 15.2265 25.2666C16.7198 24.9999 18.1598 24.4799 19.4798 23.7199C20.5731 23.0948 21.5515 22.2877 22.3732 21.3333C23.7732 19.7733 24.5998 17.9999 25.1998 16.4666H25.4532C26.9732 16.4666 27.9198 15.8533 28.4398 15.3333C28.7865 15.0133 29.0398 14.6266 29.2265 14.1733L29.3332 13.8533L29.0798 13.6666ZM5.13317 14.9866H7.47984C7.5865 14.9866 7.69317 14.8933 7.69317 14.7733V12.6666C7.69317 12.5599 7.59984 12.4533 7.47984 12.4533H5.13317C5.01317 12.4533 4.91984 12.5466 4.91984 12.6666V14.7733C4.93317 14.8933 5.01317 14.9866 5.13317 14.9866ZM8.37317 14.9866H10.7198C10.8265 14.9866 10.9332 14.8933 10.9332 14.7733V12.6666C10.9332 12.5599 10.8398 12.4533 10.7198 12.4533H8.37317C8.25317 12.4533 8.15984 12.5466 8.15984 12.6666V14.7733C8.17317 14.8933 8.25317 14.9866 8.37317 14.9866ZM11.6665 14.9866H13.9998C14.1332 14.9866 14.2265 14.8933 14.2265 14.7733V12.6666C14.2265 12.5599 14.1465 12.4533 13.9998 12.4533H11.6665C11.5598 12.4533 11.4665 12.5466 11.4665 12.6666V14.7733C11.4665 14.8933 11.5465 14.9866 11.6665 14.9866ZM14.9198 14.9866H17.2798C17.3865 14.9866 17.4798 14.8933 17.4798 14.7733V12.6666C17.4798 12.5599 17.3998 12.4533 17.2798 12.4533H14.9198C14.8132 12.4533 14.7198 12.5466 14.7198 12.6666V14.7733C14.7198 14.8933 14.8132 14.9866 14.9198 14.9866ZM8.37317 11.9999H10.7198C10.8265 11.9999 10.9332 11.8799 10.9332 11.7599V9.66661C10.9332 9.54661 10.8398 9.45328 10.7198 9.45328H8.37317C8.25317 9.45328 8.15984 9.53327 8.15984 9.66661V11.7599C8.17317 11.8799 8.25317 11.9999 8.37317 11.9999ZM11.6665 11.9999H13.9998C14.1332 11.9999 14.2265 11.8799 14.2265 11.7599V9.66661C14.2265 9.54661 14.1465 9.45328 13.9998 9.45328H11.6665C11.5598 9.45328 11.4665 9.53327 11.4665 9.66661V11.7599C11.4665 11.8799 11.5465 11.9999 11.6665 11.9999ZM14.9198 11.9999H17.2798C17.3865 11.9999 17.4798 11.8799 17.4798 11.7599V9.66661C17.4798 9.54661 17.3865 9.45328 17.2798 9.45328H14.9198C14.8132 9.45328 14.7198 9.53327 14.7198 9.66661V11.7599C14.7198 11.8799 14.8132 11.9999 14.9198 11.9999ZM14.9198 8.95994H17.2798C17.3865 8.95994 17.4798 8.86661 17.4798 8.74661V6.66661C17.4798 6.53327 17.3865 6.43994 17.2798 6.43994H14.9198C14.8132 6.43994 14.7198 6.51994 14.7198 6.66661V8.74661C14.7198 8.85327 14.8132 8.95994 14.9198 8.95994ZM18.1998 14.9866H20.5465C20.6665 14.9866 20.7598 14.8933 20.7598 14.7733V12.6666C20.7598 12.5599 20.6665 12.4533 20.5465 12.4533H18.1998C18.0932 12.4533 17.9998 12.5466 17.9998 12.6666V14.7733C17.9998 14.8933 18.0932 14.9866 18.1998 14.9866Z" fill="#E7E4F5"/>
</svg>
