<svg width="32" height="32" viewBox="0 0 32 32" fill="none" xmlns="http://www.w3.org/2000/svg">
<path d="M30.48 12.1901V10.6701H28.9501V9.1401H27.43V6.1001H25.91V18.2901H27.43V16.7601H28.9501V15.2401H30.48V28.9501H32V12.1901H30.48ZM28.9501 28.9501H30.48V30.4801H28.9501V28.9501ZM3.05005 30.4801H28.9501V32.0001H3.05005V30.4801ZM24.38 18.2901H25.91V19.8101H24.38V18.2901ZM22.8601 25.9101H24.38V27.4301H22.8601V25.9101ZM22.8601 19.8101H24.38V21.3301H22.8601V19.8101ZM21.33 24.3801H22.8601V25.9101H21.33V24.3801ZM21.33 21.3301H22.8601V22.8601H21.33V21.3301ZM21.33 10.6701H22.8601V15.2401H21.33V10.6701ZM19.81 9.1401H21.33V10.6701H19.81V9.1401ZM10.67 22.8601H21.33V24.3801H10.67V22.8601ZM18.29 15.2401H21.33V16.7601H18.29V15.2401ZM18.29 10.6701H13.72V12.1901H16.76V15.2401H18.29V10.6701ZM13.72 15.2401H16.76V16.7601H13.72V15.2401ZM12.19 7.6201H19.81V9.1401H12.19V7.6201ZM12.19 18.2901H19.81V19.8101H12.19V18.2901ZM12.19 12.1901H13.72V15.2401H12.19V12.1901Z" fill="#A97CFF"/>
<path d="M10.67 16.76H12.19V18.29H10.67V16.76ZM10.67 9.14H12.19V10.67H10.67V9.14ZM9.14002 24.38H10.67V25.91H9.14002V24.38ZM9.14002 21.33H10.67V22.86H9.14002V21.33ZM9.14002 10.67H10.67V16.76H9.14002V10.67ZM7.62002 25.91H9.14002V27.43H7.62002V25.91ZM7.62002 19.81H9.14002V21.33H7.62002V19.81ZM25.91 6.1V4.57H22.86V3.05H21.33V1.52H19.81V0H12.19V1.52H10.67V3.05H9.14002V4.57H6.10002V6.1H25.91ZM6.10002 18.29H7.62002V19.81H6.10002V18.29ZM1.52002 28.95H3.05002V30.48H1.52002V28.95Z" fill="#A97CFF"/>
<path d="M1.52 15.2401H3.05V16.7601H4.57V18.2901H6.1V6.1001H4.57V9.1401H3.05V10.6701H1.52V12.1901H0V28.9501H1.52V15.2401Z" fill="#A97CFF"/>
</svg>
