<svg width="32" height="32" viewBox="0 0 32 32" fill="none" xmlns="http://www.w3.org/2000/svg">
<path d="M5.33333 31.9998H10.6667V29.3332H8V26.6665H5.33333V23.9998H2.66667V21.3332H5.33333V23.9998H8V26.6665H10.6667V23.9998H13.3333V21.3332H8V18.6665H5.33333V10.6665H8V5.33317H10.6667V7.99984H18.6667V5.33317H21.3333V10.6665H24V18.6665H21.3333V21.3332H16V23.9998H18.6667V31.9998H24V29.3332H26.6667V26.6665H29.3333V7.99984H26.6667V5.33317H24V2.6665H5.33333V5.33317H2.66667V7.99984H0V26.6665H2.66667V29.3332H5.33333V31.9998Z" fill="#A97CFF"/>
</svg>
