<svg width="32" height="32" viewBox="0 0 32 32" fill="none" xmlns="http://www.w3.org/2000/svg">
<path d="M16.0001 2.6665C14.2491 2.6665 12.5153 3.01138 10.8976 3.68144C9.27996 4.35151 7.81011 5.33363 6.57199 6.57175C4.07151 9.07223 2.66675 12.4636 2.66675 15.9998C2.66675 21.8932 6.49341 26.8932 11.7867 28.6665C12.4534 28.7732 12.6667 28.3598 12.6667 27.9998V25.7465C8.97341 26.5465 8.18675 23.9598 8.18675 23.9598C7.57341 22.4132 6.70675 21.9998 6.70675 21.9998C5.49342 21.1732 6.80008 21.1998 6.80008 21.1998C8.13341 21.2932 8.84008 22.5732 8.84008 22.5732C10.0001 24.5998 11.9601 23.9998 12.7201 23.6798C12.8401 22.8132 13.1867 22.2265 13.5601 21.8932C10.6001 21.5598 7.49341 20.4132 7.49341 15.3332C7.49341 13.8532 8.00008 12.6665 8.86675 11.7198C8.73342 11.3865 8.26675 9.99984 9.00008 8.19984C9.00008 8.19984 10.1201 7.83984 12.6667 9.55984C13.7201 9.2665 14.8667 9.11984 16.0001 9.11984C17.1334 9.11984 18.2801 9.2665 19.3334 9.55984C21.8801 7.83984 23.0001 8.19984 23.0001 8.19984C23.7334 9.99984 23.2667 11.3865 23.1334 11.7198C24.0001 12.6665 24.5067 13.8532 24.5067 15.3332C24.5067 20.4265 21.3867 21.5465 18.4134 21.8798C18.8934 22.2932 19.3334 23.1065 19.3334 24.3465V27.9998C19.3334 28.3598 19.5467 28.7865 20.2267 28.6665C25.5201 26.8798 29.3334 21.8932 29.3334 15.9998C29.3334 14.2489 28.9885 12.5151 28.3185 10.8974C27.6484 9.27972 26.6663 7.80986 25.4282 6.57175C24.1901 5.33363 22.7202 4.35151 21.1025 3.68144C19.4849 3.01138 17.751 2.6665 16.0001 2.6665Z" fill="#E7E4F5"/>
</svg>
