<svg width="32" height="32" viewBox="0 0 32 32" fill="none" xmlns="http://www.w3.org/2000/svg">
<mask id="mask0_901_1563" style="mask-type:luminance" maskUnits="userSpaceOnUse" x="0" y="0" width="32" height="32">
<path d="M0 0H32V32H0V0Z" fill="white"/>
</mask>
<g mask="url(#mask0_901_1563)">
<path d="M6.77344 0H8.2161V1.42533H9.5361V0H10.9788V4.31467H9.5361V2.87067H8.2161V4.31467H6.77477L6.77344 0ZM12.8748 1.43067H11.6054V0H15.5881V1.43067H14.3174V4.31467H12.8748V1.43067ZM16.2201 0H17.7241L18.6494 1.516L19.5734 0H21.0774V4.31467H19.6414V2.176L18.6494 3.71067H18.6241L17.6308 2.17733V4.31467H16.2201V0ZM21.7948 0H23.2388V2.88933H25.2654V4.316H21.7948V0Z" fill="#E7E4F5"/>
<path fill-rule="evenodd" clip-rule="evenodd" d="M6.728 29.4296L4 6.28955H28L25.2707 29.4269L15.9867 32.0002L6.728 29.4296ZM12.244 16.7629L11.9853 13.8562H22.8453L23.0987 11.0189H8.88533L9.65067 19.6016H19.4867L19.1573 23.2816L15.992 24.1376H15.9893L12.8293 23.2842L12.6267 21.0216H9.776L10.1733 25.4776L15.9867 27.0909L21.8093 25.4776L22.5187 17.5256L22.588 16.7642L12.244 16.7629Z" fill="#E7E4F5"/>
</g>
</svg>
