<svg width="32" height="32" viewBox="0 0 32 32" fill="none" xmlns="http://www.w3.org/2000/svg">
<path fill-rule="evenodd" clip-rule="evenodd" d="M19.0853 24.1388C21.0747 23.5628 22.7547 21.8134 23.6933 20.1201C24.5189 18.5886 24.872 16.8468 24.708 15.1148C24.6813 14.8445 24.6245 14.5814 24.5373 14.3254C24.496 14.1881 24.8453 13.7228 24.9827 13.5374L25.0227 13.4828C25.8655 12.3289 26.698 11.1676 27.52 9.99877C27.664 9.81566 27.7871 9.61921 27.8893 9.40943L27.9787 9.32677C28.0142 9.28499 28.0054 9.26721 27.952 9.27343C26.4854 9.33388 24.988 9.42277 23.46 9.5401C22.9596 9.57921 22.4476 9.59521 21.924 9.5881C21.8709 9.58728 21.8181 9.58012 21.7667 9.56677C21.7358 9.55867 21.7088 9.53974 21.6907 9.51343C20.504 8.01077 16.288 6.9481 13.764 7.64677C12.5267 7.97353 11.3725 8.55854 10.3774 9.36332C9.38237 10.1681 8.56896 11.1744 7.99068 12.3161C7.19993 13.9785 6.95044 15.8471 7.27735 17.6588C7.52535 19.1734 6.18135 20.5388 5.03602 21.7041C4.65202 22.0948 4.28135 22.4588 4.01335 22.8014C3.98757 22.8494 3.99913 22.8699 4.04802 22.8628C4.80802 22.8183 5.56713 22.761 6.32535 22.6908C7.52535 22.5814 8.72535 22.4774 9.93202 22.4854C10.076 22.4854 10.172 22.5681 10.2533 22.6494L10.3707 22.7534C11.6232 23.6299 13.0587 24.2099 14.5685 24.4497C16.0783 24.6894 17.6229 24.584 19.0853 24.1388ZM10.788 19.9948C11.076 20.0214 11.2813 20.0708 11.4947 20.2894C12.0962 20.8869 12.812 21.3569 13.5993 21.6714C14.3867 21.9859 15.2293 22.1385 16.0769 22.1199C16.9245 22.1014 17.7597 21.9121 18.5325 21.5635C19.3053 21.2148 19.9999 20.714 20.5747 20.0908C21.2486 19.3224 21.7235 18.4004 21.9576 17.4056C22.1917 16.4107 22.1779 15.3737 21.9173 14.3854C21.8493 14.2014 21.78 13.9948 21.8493 13.8654L22.836 12.1094C22.8323 12.0996 22.8258 12.091 22.8173 12.0848C22.8087 12.0787 22.7985 12.0752 22.788 12.0748C22.02 12.1441 21.3693 12.1228 20.82 12.0214C20.5453 11.9654 20.3947 11.8014 20.2307 11.6294C19.4184 10.8923 18.4335 10.3716 17.367 10.1153C16.3005 9.85895 15.1866 9.87529 14.128 10.1628C13.9773 10.2028 13.848 10.2654 13.7093 10.3268L13.4693 10.4361C10.796 11.4721 9.41068 14.3308 9.81602 17.0188C9.82935 17.1361 9.86268 17.2588 9.89602 17.3828C9.97335 17.6841 10.056 18.0068 9.95202 18.2734C9.72725 18.8554 9.42496 19.4043 9.05335 19.9054C9.05171 19.9199 9.05487 19.9345 9.06233 19.9471C9.0698 19.9596 9.08116 19.9693 9.09468 19.9748C9.10135 19.9881 9.12135 19.9881 9.13602 19.9881C9.68815 19.9366 10.2439 19.9366 10.796 19.9881L10.788 19.9948Z" fill="#8F5BFF"/>
<path d="M5.71471 12.228C5.94382 12.2344 6.17188 12.1948 6.38542 12.1115C6.59896 12.0282 6.79364 11.903 6.95795 11.7432C7.12226 11.5834 7.25287 11.3923 7.34205 11.1812C7.43123 10.9701 7.47718 10.7432 7.47718 10.514C7.47718 10.2848 7.43123 10.0579 7.34205 9.84678C7.25287 9.63565 7.12226 9.44453 6.95795 9.28474C6.79364 9.12495 6.59896 8.99972 6.38542 8.91646C6.17188 8.8332 5.94382 8.79359 5.71471 8.79998C5.2684 8.81243 4.84455 8.99847 4.53328 9.31855C4.222 9.63863 4.04785 10.0675 4.04785 10.514C4.04785 10.9605 4.222 11.3893 4.53328 11.7094C4.84455 12.0295 5.2684 12.2155 5.71471 12.228Z" fill="#8F5BFF"/>
</svg>
