<svg width="32" height="32" viewBox="0 0 32 32" fill="none" xmlns="http://www.w3.org/2000/svg">
<path d="M9.24023 18.2506C9.29272 18.2211 9.35054 18.2022 9.41036 18.195C9.47018 18.1878 9.53082 18.1926 9.58881 18.2089C9.64679 18.2253 9.70097 18.2529 9.74824 18.2903C9.7955 18.3277 9.83492 18.374 9.86423 18.4266L9.94823 18.568C10.5882 19.7031 11.2549 20.7813 11.9482 21.8026C12.8113 23.0646 13.7341 24.2847 14.7136 25.4586C14.7914 25.5515 14.8295 25.6712 14.8198 25.7919C14.81 25.9127 14.7532 26.0248 14.6616 26.104L14.5629 26.192C11.1722 29.156 8.9749 29.7453 7.9589 27.9693C6.96423 26.2293 7.3229 23.0733 9.03623 18.4893C9.07336 18.3875 9.14573 18.3037 9.24023 18.2506ZM23.6669 21.7333C23.7844 21.7118 23.9057 21.7376 24.0043 21.805C24.1029 21.8724 24.1709 21.976 24.1936 22.0933L24.2202 22.2266C25.0576 26.6088 24.4687 28.8 22.4536 28.8C20.4802 28.8 17.9736 26.9306 14.9216 23.196C14.8536 23.1126 14.8185 23.0074 14.8229 22.9C14.8229 22.6493 15.0309 22.4466 15.2816 22.4466H15.4429C16.6926 22.4563 17.9422 22.4127 19.1882 22.316C20.6158 22.2022 22.1087 22.0079 23.6669 21.7333ZM24.8282 12.4306C24.8712 12.3159 24.9573 12.2225 25.0681 12.1702C25.1789 12.1179 25.3057 12.1109 25.4216 12.1506L25.5576 12.196C29.9087 13.676 31.5616 15.3044 30.5162 17.0813C29.4958 18.8208 26.5251 20.0866 21.6042 20.8786C21.4944 20.8951 21.3822 20.8729 21.2869 20.816C21.2336 20.7859 21.1869 20.7454 21.1495 20.697C21.1122 20.6485 21.0849 20.593 21.0694 20.5339C21.0538 20.4747 21.0503 20.413 21.0591 20.3524C21.0678 20.2919 21.0886 20.2337 21.1202 20.1813L21.2029 20.04C21.8575 18.9448 22.4656 17.8224 23.0256 16.676C23.6629 15.3568 24.2638 13.9417 24.8282 12.4306ZM10.3962 11.12C10.5061 11.1035 10.6182 11.1256 10.7136 11.1826C10.7668 11.2127 10.8136 11.2532 10.8509 11.3016C10.8883 11.3501 10.9155 11.4055 10.9311 11.4647C10.9466 11.5239 10.9501 11.5856 10.9414 11.6462C10.9327 11.7067 10.9119 11.7649 10.8802 11.8173L10.7976 11.9586C10.1429 13.0538 9.53484 14.1761 8.9749 15.3226C8.33756 16.6408 7.73668 18.056 7.17223 19.568C7.12922 19.6827 7.04318 19.7761 6.93239 19.8284C6.8216 19.8807 6.69479 19.8877 6.5789 19.848L6.4429 19.8026C2.09179 18.3217 0.438897 16.6933 1.48423 14.9173C2.50468 13.1768 5.47534 11.9111 10.3962 11.12ZM17.4376 5.80795C20.8282 2.84395 23.0269 2.25595 24.0416 4.03195C25.0371 5.76884 24.678 8.9284 22.9642 13.5106C22.9271 13.6124 22.8547 13.6976 22.7602 13.7506C22.7077 13.7801 22.6498 13.799 22.5899 13.806C22.53 13.8131 22.4693 13.8082 22.4113 13.7917C22.3534 13.7753 22.2992 13.7475 22.252 13.71C22.2048 13.6725 22.1654 13.626 22.1362 13.5733L22.0522 13.432C21.4298 12.327 20.7626 11.2479 20.0522 10.1973C19.1892 8.93527 18.2664 7.71521 17.2869 6.54128C17.2091 6.44843 17.171 6.32871 17.1807 6.20796C17.1904 6.08722 17.2472 5.97515 17.3389 5.89595L17.4376 5.80795ZM9.71356 3.03195C11.6869 3.03195 14.1976 4.89995 17.2456 8.63595C17.3122 8.71824 17.3489 8.82074 17.3496 8.92662C17.3475 9.04853 17.2978 9.16479 17.211 9.25051C17.1243 9.33623 17.0075 9.38461 16.8856 9.38528L16.7296 9.37995C15.4798 9.37511 14.2304 9.42048 12.9842 9.51595C11.4812 9.63963 9.98491 9.83406 8.50023 10.0986C8.38248 10.1186 8.2616 10.0916 8.16343 10.0236C8.06526 9.95559 7.9976 9.85187 7.9749 9.73462L7.94823 9.60395C7.10912 5.22262 7.69756 3.03284 9.71356 3.03195ZM13.5416 10.78H18.4589C18.6072 10.7804 18.7528 10.8195 18.8814 10.8934C19.01 10.9673 19.1171 11.0734 19.1922 11.2013L21.6562 15.4946C21.7282 15.6224 21.766 15.7666 21.766 15.9133C21.766 16.06 21.7282 16.2041 21.6562 16.332L19.1936 20.6293C19.1184 20.7574 19.011 20.8636 18.8822 20.9375C18.7533 21.0114 18.6074 21.0504 18.4589 21.0506H13.5416C13.3937 21.0508 13.2483 21.012 13.1203 20.938C12.9922 20.864 12.8859 20.7575 12.8122 20.6293L10.3442 16.3333C10.272 16.2053 10.2341 16.0609 10.2341 15.914C10.2341 15.767 10.272 15.6226 10.3442 15.4946L12.8136 11.2026C12.8872 11.0746 12.9932 10.9682 13.121 10.8943C13.2488 10.8203 13.3939 10.7813 13.5416 10.7813M17.8482 11.8386C17.997 11.8386 18.1432 11.8775 18.2723 11.9514C18.4014 12.0253 18.5089 12.1317 18.5842 12.26L20.4376 15.4946C20.5098 15.6226 20.5477 15.767 20.5477 15.914C20.5477 16.0609 20.5098 16.2053 20.4376 16.3333L18.5842 19.5733C18.509 19.7014 18.4017 19.8076 18.2729 19.8815C18.144 19.9554 17.9981 19.9944 17.8496 19.9946H14.1509C14.0032 19.9946 13.8582 19.9556 13.7304 19.8816C13.6026 19.8077 13.4965 19.7013 13.4229 19.5733L11.5629 16.3333C11.4907 16.2053 11.4528 16.0609 11.4528 15.914C11.4528 15.767 11.4907 15.6226 11.5629 15.4946L13.4229 12.26C13.4965 12.1319 13.6026 12.0256 13.7304 11.9516C13.8582 11.8776 14.0032 11.8387 14.1509 11.8386H17.8482ZM17.1936 12.9946H14.8069C14.659 12.9933 14.5134 13.0317 14.3853 13.1058C14.2573 13.1799 14.1514 13.287 14.0789 13.416L12.8802 15.496C12.8083 15.6238 12.7705 15.7679 12.7705 15.9146C12.7705 16.0613 12.8083 16.2055 12.8802 16.3333L14.0789 18.4173C14.1526 18.5455 14.2589 18.652 14.3869 18.726C14.515 18.8 14.6603 18.8388 14.8082 18.8386H17.1936C17.3415 18.8388 17.4868 18.8 17.6149 18.726C17.7429 18.652 17.8492 18.5455 17.9229 18.4173L19.1202 16.3333C19.1924 16.2053 19.2304 16.0609 19.2304 15.914C19.2304 15.767 19.1924 15.6226 19.1202 15.4946L17.9229 13.4173C17.8504 13.2879 17.7445 13.1804 17.6162 13.106C17.4878 13.0316 17.3419 12.9932 17.1936 12.9946ZM16.5576 14.0986C16.8602 14.0986 17.1416 14.26 17.2869 14.5213L17.8496 15.4946C17.923 15.6222 17.9617 15.7668 17.9617 15.914C17.9617 16.0611 17.923 16.2057 17.8496 16.3333L17.2869 17.312C17.2134 17.4404 17.1072 17.5472 16.9791 17.6214C16.851 17.6956 16.7056 17.7347 16.5576 17.7346H15.4429C15.2949 17.7347 15.1495 17.6956 15.0214 17.6214C14.8933 17.5472 14.7871 17.4404 14.7136 17.312L14.1509 16.3333C14.0774 16.2057 14.0387 16.0611 14.0387 15.914C14.0387 15.7668 14.0774 15.6222 14.1509 15.4946L14.7136 14.5213C14.7871 14.3928 14.8933 14.2861 15.0214 14.2118C15.1495 14.1376 15.2949 14.0986 15.4429 14.0986H16.5576ZM16.0002 15.188C15.8725 15.1885 15.7471 15.2223 15.6365 15.2861C15.5259 15.35 15.4339 15.4416 15.3696 15.552C15.3059 15.663 15.2725 15.7887 15.2725 15.9166C15.2725 16.0446 15.3059 16.1703 15.3696 16.2813C15.4334 16.3918 15.5254 16.4834 15.6362 16.5466C15.747 16.6099 15.8726 16.6425 16.0002 16.6413C16.1278 16.6425 16.2535 16.6099 16.3643 16.5466C16.4751 16.4834 16.5671 16.3918 16.6309 16.2813C16.6945 16.1703 16.728 16.0446 16.728 15.9166C16.728 15.7887 16.6945 15.663 16.6309 15.552C16.5666 15.4416 16.4746 15.35 16.3639 15.2861C16.2533 15.2223 16.1279 15.1885 16.0002 15.188ZM10.1042 15.916H11.4109ZM25.3096 10.3333C25.8296 7.80795 25.9442 5.87462 25.6056 4.46928C25.4082 3.62928 25.0429 2.95328 24.4856 2.45862C23.8976 1.93862 23.1522 1.68262 22.3189 1.68262C20.9389 1.68262 19.4922 2.31195 17.9442 3.50528C17.2517 4.04639 16.5956 4.63255 15.9802 5.25995C15.9263 5.19011 15.8655 5.12579 15.7989 5.06795C13.8709 3.35462 12.2522 2.29195 10.8656 1.88128C10.0429 1.63595 9.27223 1.61462 8.56956 1.84928C7.82423 2.09862 7.2309 2.61462 6.81356 3.33862C6.1269 4.53062 5.94423 6.10395 6.20023 8.04128C6.30601 8.82795 6.48467 9.68751 6.73623 10.62C6.63866 10.6302 6.54252 10.6512 6.44956 10.6826C4.0109 11.4933 2.28023 12.3586 1.2349 13.3533C0.614897 13.9426 0.20823 14.604 0.0575638 15.328C-0.0931029 16.0986 0.0575637 16.8693 0.473564 17.5946C1.16156 18.7866 2.4269 19.724 4.22956 20.468C4.95223 20.7648 5.77179 21.036 6.68823 21.2813C6.6453 21.3777 6.61397 21.4788 6.5949 21.5826C6.07356 24.104 5.9589 26.0413 6.29756 27.4426C6.4949 28.2813 6.86423 28.9626 7.41756 29.4533C8.00423 29.9733 8.7509 30.2293 9.58423 30.2293C10.9642 30.2293 12.4109 29.5986 13.9576 28.4106C14.5931 27.9164 15.2549 27.3226 15.9429 26.6293C16.0166 26.7406 16.1039 26.8423 16.2029 26.932C18.1309 28.6453 19.7496 29.708 21.1362 30.1186C21.9589 30.364 22.7296 30.3853 23.4322 30.1506C24.1776 29.9013 24.7709 29.3853 25.1882 28.6613C25.8749 27.4693 26.0576 25.896 25.8016 23.9586C25.6743 23.0525 25.4849 22.1562 25.2349 21.276C25.3425 21.2658 25.4488 21.2448 25.5522 21.2133C27.9896 20.4 29.7189 19.536 30.7656 18.5413C31.3856 17.9533 31.7922 17.292 31.9429 16.568C32.0936 15.7973 31.9429 15.0253 31.5269 14.3013C30.8389 13.1093 29.5736 12.172 27.7709 11.4266C26.9433 11.0924 26.0943 10.814 25.2296 10.5933C25.2646 10.5095 25.2923 10.4224 25.3096 10.3333Z" fill="#E7E4F5"/>
</svg>
