<svg width="32" height="32" viewBox="0 0 32 32" fill="none" xmlns="http://www.w3.org/2000/svg">
<path d="M10.667 15.9998C10.667 8.63584 13.0537 2.6665 16.0003 2.6665C18.947 2.6665 21.3337 8.63584 21.3337 15.9998C21.3337 23.3638 18.947 29.3332 16.0003 29.3332C13.0537 29.3332 10.667 23.3638 10.667 15.9998Z" stroke="#E7E4F5" stroke-width="2"/>
<path d="M13.3001 11.4934C19.7561 7.81071 26.1988 6.89338 27.6894 9.44404C29.1801 11.9947 25.1561 17.048 18.7001 20.7294C12.2441 24.4107 5.80144 25.3294 4.31077 22.7774C2.82011 20.2267 6.84411 15.176 13.3001 11.4934Z" stroke="#E7E4F5" stroke-width="2"/>
<path d="M18.7001 11.4934C25.1561 15.1734 29.1801 20.2267 27.6894 22.7774C26.1988 25.3294 19.7561 24.412 13.3001 20.7294C6.84411 17.0467 2.82011 11.996 4.31077 9.44404C5.80011 6.89338 12.2441 7.81071 18.7001 11.4934Z" stroke="#E7E4F5" stroke-width="2"/>
<path d="M18 16C18 16.5304 17.7893 17.0391 17.4142 17.4142C17.0391 17.7893 16.5304 18 16 18C15.4696 18 14.9609 17.7893 14.5858 17.4142C14.2107 17.0391 14 16.5304 14 16C14 15.4696 14.2107 14.9609 14.5858 14.5858C14.9609 14.2107 15.4696 14 16 14C16.5304 14 17.0391 14.2107 17.4142 14.5858C17.7893 14.9609 18 15.4696 18 16Z" stroke="#E7E4F5" stroke-width="2"/>
</svg>
