<svg width="32" height="32" viewBox="0 0 32 32" fill="none" xmlns="http://www.w3.org/2000/svg">
<path d="M8.47584 12C4.95984 12.9067 2.6665 14.46 2.6665 16.2333C2.6665 19.0427 8.53984 21.3333 15.7998 21.3333C16.7865 21.3333 17.4798 21.2813 18.3998 21.204" stroke="#E7E4F5" stroke-width="2.66667" stroke-linecap="round" stroke-linejoin="round"/>
<path d="M13.1158 21.1998C12.5652 20.4051 12.0412 19.6891 11.5425 18.7998C7.87449 12.2665 6.89183 5.77314 9.36916 4.30248C10.9025 3.37314 13.4318 4.63981 16.0012 7.30781" stroke="#E7E4F5" stroke-width="2.66667" stroke-linecap="round" stroke-linejoin="round"/>
<path d="M8.57164 20.516C7.63564 24.1 7.82497 26.804 9.3183 27.7093C11.6956 29.1493 16.501 25.0987 20.0423 18.6373C20.5223 17.744 20.9525 16.8649 21.333 16" stroke="#E7E4F5" stroke-width="2.66667" stroke-linecap="round" stroke-linejoin="round"/>
<path d="M16 24.6931C18.5707 27.3598 21.0893 28.6265 22.6373 27.6971C25.104 26.2278 24.132 19.7345 20.46 13.1998C19.948 12.2971 19.424 11.5945 18.8867 10.7998" stroke="#E7E4F5" stroke-width="2.66667" stroke-linecap="round" stroke-linejoin="round"/>
<path d="M23.5463 19.9998C27.0289 19.0838 29.3329 17.5332 29.3329 15.7652C29.3329 12.9518 23.4556 10.6665 16.2063 10.6665C15.2103 10.6665 14.5183 10.7052 13.5996 10.7825" stroke="#E7E4F5" stroke-width="2.66667" stroke-linecap="round" stroke-linejoin="round"/>
<path d="M10.6665 15.9997C11.0465 15.1197 11.4758 14.2557 11.9572 13.3623C15.4865 6.90368 20.2945 2.84235 22.6852 4.29435C24.1652 5.19968 24.3678 7.90235 23.4318 11.485M16.3465 16.0197H16.3332C16.3198 16.193 16.1732 16.3397 15.9865 16.3397C15.8972 16.3353 15.813 16.2969 15.751 16.2325C15.6891 16.1681 15.6541 16.0824 15.6532 15.993C15.6532 15.8063 15.7998 15.6597 15.9732 15.6597H15.9598C16.1332 15.6463 16.2932 15.8063 16.2932 15.9797" stroke="#E7E4F5" stroke-width="2.66667" stroke-linecap="round" stroke-linejoin="round"/>
</svg>
