<svg width="32" height="32" viewBox="0 0 32 32" fill="none" xmlns="http://www.w3.org/2000/svg">
<path d="M11.3668 6.17346L4.52416 4.95346C4.23291 4.89938 3.93229 4.92935 3.65745 5.03985C3.38261 5.15036 3.14491 5.33683 2.97216 5.57746C2.7906 5.82128 2.68492 6.11319 2.66832 6.41673C2.65172 6.72026 2.72494 7.02196 2.87882 7.28412L14.7468 28.0575C14.8852 28.2996 15.0853 28.5006 15.3268 28.6401C15.5683 28.7796 15.8424 28.8525 16.1213 28.8515C16.4001 28.8504 16.6737 28.7753 16.9141 28.634C17.1545 28.4926 17.353 28.29 17.4895 28.0468L29.1282 7.27612C29.7815 6.10946 28.7788 4.72012 27.4722 4.95746L21.3735 6.04146L21.0988 7.04679L27.6402 5.88546C27.7579 5.86431 27.8792 5.87701 27.99 5.92208C28.1008 5.96716 28.1966 6.04276 28.2661 6.14009C28.3357 6.23742 28.3762 6.35249 28.3829 6.47193C28.3896 6.59137 28.3623 6.71026 28.3042 6.81479L16.6668 27.5855C16.6028 27.7011 16.5039 27.7936 16.3841 27.8497C16.2644 27.9057 16.13 27.9224 16.0002 27.8975C15.9095 27.8812 15.8236 27.8452 15.7485 27.7919C15.6733 27.7387 15.6109 27.6696 15.5655 27.5895L3.69616 6.81612C3.63708 6.71171 3.60895 6.59264 3.61504 6.47283C3.62113 6.35302 3.6612 6.23742 3.73056 6.13953C3.79991 6.04165 3.8957 5.96553 4.00672 5.92006C4.11773 5.8746 4.2394 5.86167 4.35749 5.88279L11.2015 7.10412L11.3002 7.12146L11.3668 6.17346Z" fill="#E7E4F5"/>
<path d="M20.1292 7.01332L20.3452 6.22266L19.5452 6.36532L20.1292 7.01332ZM12.2892 6.33866L12.9732 6.45866L12.2505 7.02799L12.2892 6.33866Z" fill="#E7E4F5"/>
<path d="M20.7318 3.15601L12.5985 4.83601C12.5323 4.84985 12.473 4.88612 12.4305 4.93867C12.3869 4.99262 12.3613 5.0588 12.3571 5.12801L11.8571 14.0413C11.854 14.0896 11.8618 14.138 11.8801 14.1828C11.8983 14.2276 11.9265 14.2677 11.9625 14.3C11.9967 14.332 12.0385 14.3549 12.0839 14.3665C12.1294 14.3782 12.177 14.3782 12.2225 14.3667L14.4865 13.8147C14.6998 13.764 14.8891 13.9613 14.8465 14.1853L14.1731 17.66C14.1278 17.8947 14.3358 18.0947 14.5531 18.0253L15.9518 17.5773C16.1678 17.508 16.3771 17.708 16.3305 17.9427L15.2625 23.4C15.1958 23.7427 15.6251 23.928 15.8051 23.636L15.9251 23.44L22.5518 9.48801C22.6638 9.25467 22.4718 8.98801 22.2291 9.03734L19.8985 9.51201C19.6785 9.55734 19.4931 9.34134 19.5545 9.11601L21.0745 3.55201C21.1371 3.32534 20.9505 3.11067 20.7318 3.15601Z" fill="#E7E4F5"/>
</svg>
